<svg width="246" height="38" viewBox="0 0 246 38" fill="none" xmlns="http://www.w3.org/2000/svg">
<path d="M231 1.10938H229.875L230.133 2.20399L238.133 36.204L238.295 36.8906H239H243H244.125L243.867 35.796L235.867 1.79601L235.705 1.10938H235H231Z" fill="#57576A" stroke="#20202E" stroke-width="1.78125"/>
<path d="M222 1.10938H220.875L221.133 2.20399L229.133 36.204L229.295 36.8906H230H234H235.125L234.867 35.796L226.867 1.79601L226.705 1.10938H226H222Z" fill="#57576A" stroke="#20202E" stroke-width="1.78125"/>
<path d="M213 1.10938H211.875L212.133 2.20399L220.133 36.204L220.295 36.8906H221H225H226.125L225.867 35.796L217.867 1.79601L217.705 1.10938H217H213Z" fill="#57576A" stroke="#20202E" stroke-width="1.78125"/>
<path d="M2 1.10938H1.10938V2V36V36.8906H2H216H217.137L216.865 35.7866L208.473 1.78657L208.305 1.10938H207.608H2Z" fill="#57576A" stroke="#20202E" stroke-width="1.78125"/>
</svg>
